<svg width="22" height="22" viewBox="0 0 22 22" fill="none" xmlns="http://www.w3.org/2000/svg">
<rect width="22" height="22" fill="#EEF2F7"/>
<circle cx="11" cy="11" r="9.25" stroke="#4A5568" stroke-width="1.5"/>
<path d="M10.9618 5.464C11.2924 5.464 11.5538 5.56 11.7458 5.752C11.9484 5.944 12.0498 6.216 12.0498 6.568C12.0498 6.92 11.9484 7.192 11.7458 7.384C11.5538 7.576 11.2924 7.672 10.9618 7.672C10.6311 7.672 10.3644 7.576 10.1618 7.384C9.96975 7.192 9.87375 6.92 9.87375 6.568C9.87375 6.216 9.96975 5.944 10.1618 5.752C10.3644 5.56 10.6311 5.464 10.9618 5.464ZM11.7618 15.64L12.8498 16.12V17H9.32975V16.12L10.4178 15.64V10.328L9.32975 9.88V8.968H11.7618V15.64Z" fill="#4A5568"/>
</svg>
