<svg width="260" height="70" viewBox="0 0 260 70" fill="none" xmlns="http://www.w3.org/2000/svg">
<path d="M39.8651 45H43.2905V38.0753H46.7805L50.4922 45H54.3146L50.2244 37.5028C52.4496 36.6072 53.6222 34.7053 53.6222 32.1385C53.6222 28.5284 51.2955 26.0909 46.956 26.0909H39.8651V45ZM43.2905 35.2315V28.9531H46.4297C48.9872 28.9531 50.1321 30.1257 50.1321 32.1385C50.1321 34.1513 48.9872 35.2315 46.4482 35.2315H43.2905ZM62.7028 45.277C66.0082 45.277 68.2795 43.6612 68.8704 41.196L65.7496 40.8452C65.2972 42.0455 64.1893 42.6733 62.7489 42.6733C60.5884 42.6733 59.1573 41.2514 59.1296 38.8232H69.0089V37.7983C69.0089 32.8217 66.0174 30.6335 62.5273 30.6335C58.4648 30.6335 55.815 33.6158 55.815 37.9922C55.815 42.4425 58.4279 45.277 62.7028 45.277ZM59.1388 36.5703C59.2404 34.7607 60.5792 33.2372 62.5735 33.2372C64.494 33.2372 65.7866 34.6406 65.805 36.5703H59.1388ZM83.0453 34.5668C82.5836 32.1662 80.6632 30.6335 77.3393 30.6335C73.9231 30.6335 71.5964 32.3139 71.6056 34.9361C71.5964 37.0043 72.8706 38.3707 75.5943 38.9339L78.0133 39.4418C79.3152 39.728 79.9245 40.2543 79.9245 41.0575C79.9245 42.027 78.872 42.7564 77.2839 42.7564C75.7512 42.7564 74.7541 42.0916 74.4679 40.8175L71.2086 41.1314C71.6241 43.7351 73.8123 45.277 77.2931 45.277C80.8386 45.277 83.3407 43.4396 83.35 40.7528C83.3407 38.7308 82.0389 37.4936 79.3613 36.9119L76.9423 36.3949C75.502 36.0717 74.9295 35.5732 74.9387 34.7514C74.9295 33.7912 75.9913 33.1264 77.3855 33.1264C78.9274 33.1264 79.7399 33.9666 79.9984 34.8991L83.0453 34.5668ZM93.1877 30.8182H90.3901V27.4205H87.0478V30.8182H85.035V33.4034H87.0478V41.2884C87.0293 43.9567 88.9682 45.2678 91.4796 45.1939C92.4306 45.1662 93.0861 44.9815 93.4462 44.8615L92.883 42.2486C92.6983 42.2947 92.3198 42.3778 91.9043 42.3778C91.0641 42.3778 90.3901 42.0824 90.3901 40.7344V33.4034H93.1877V30.8182ZM100.064 45.2862C102.289 45.2862 103.619 44.2429 104.228 43.0518H104.339V45H107.552V35.5085C107.552 31.7599 104.496 30.6335 101.79 30.6335C98.8082 30.6335 96.5185 31.9631 95.7798 34.5483L98.9006 34.9915C99.233 34.022 100.175 33.1911 101.809 33.1911C103.36 33.1911 104.21 33.9851 104.21 35.3793V35.4347C104.21 36.3949 103.203 36.4411 100.701 36.7088C97.9496 37.0043 95.3182 37.826 95.3182 41.0206C95.3182 43.8089 97.3587 45.2862 100.064 45.2862ZM100.932 42.8303C99.5376 42.8303 98.5405 42.1932 98.5405 40.9652C98.5405 39.6818 99.6577 39.1463 101.153 38.9339C102.031 38.8139 103.785 38.5923 104.219 38.2415V39.9126C104.219 41.4915 102.945 42.8303 100.932 42.8303ZM119.952 39.0355C119.952 41.196 118.41 42.267 116.933 42.267C115.326 42.267 114.255 41.1314 114.255 39.331V30.8182H110.913V39.848C110.913 43.255 112.852 45.1847 115.64 45.1847C117.763 45.1847 119.259 44.0675 119.906 42.4794H120.053V45H123.294V30.8182H119.952V39.0355ZM126.731 45H130.073V36.6626C130.073 34.8622 131.431 33.5881 133.268 33.5881C133.831 33.5881 134.533 33.6896 134.819 33.782V30.7074C134.514 30.652 133.988 30.6151 133.619 30.6151C131.994 30.6151 130.637 31.5384 130.119 33.1818H129.972V30.8182H126.731V45ZM137.187 45H140.613V36.9673H149.375V45H152.809V26.0909H149.375V34.0959H140.613V26.0909H137.187V45ZM165.426 39.0355C165.426 41.196 163.884 42.267 162.407 42.267C160.801 42.267 159.73 41.1314 159.73 39.331V30.8182H156.387V39.848C156.387 43.255 158.326 45.1847 161.115 45.1847C163.238 45.1847 164.734 44.0675 165.38 42.4794H165.528V45H168.769V30.8182H165.426V39.0355ZM175.548 36.6903C175.548 34.6406 176.785 33.4588 178.549 33.4588C180.275 33.4588 181.309 34.5945 181.309 36.4872V45H184.652V35.9702C184.661 32.5724 182.722 30.6335 179.795 30.6335C177.672 30.6335 176.213 31.6491 175.566 33.228H175.4V30.8182H172.206V45H175.548V36.6903ZM195.131 30.8182H192.333V27.4205H188.991V30.8182H186.978V33.4034H188.991V41.2884C188.973 43.9567 190.912 45.2678 193.423 45.1939C194.374 45.1662 195.029 44.9815 195.39 44.8615L194.826 42.2486C194.642 42.2947 194.263 42.3778 193.848 42.3778C193.007 42.3778 192.333 42.0824 192.333 40.7344V33.4034H195.131V30.8182ZM204.052 45.277C207.358 45.277 209.629 43.6612 210.22 41.196L207.099 40.8452C206.647 42.0455 205.539 42.6733 204.099 42.6733C201.938 42.6733 200.507 41.2514 200.479 38.8232H210.358V37.7983C210.358 32.8217 207.367 30.6335 203.877 30.6335C199.814 30.6335 197.165 33.6158 197.165 37.9922C197.165 42.4425 199.778 45.277 204.052 45.277ZM200.488 36.5703C200.59 34.7607 201.929 33.2372 203.923 33.2372C205.844 33.2372 207.136 34.6406 207.155 36.5703H200.488ZM213.186 45H216.528V36.6626C216.528 34.8622 217.886 33.5881 219.723 33.5881C220.286 33.5881 220.988 33.6896 221.274 33.782V30.7074C220.969 30.652 220.443 30.6151 220.074 30.6151C218.449 30.6151 217.092 31.5384 216.575 33.1818H216.427V30.8182H213.186V45Z" fill="#4A5568"/>
<path d="M135.933 58H137.576V56.8828H137.673C137.936 57.3999 138.485 58.1246 139.704 58.1246C141.375 58.1246 142.626 56.7997 142.626 54.4638C142.626 52.1001 141.338 50.8168 139.7 50.8168C138.449 50.8168 137.927 51.5692 137.673 52.0817H137.604V48.5455H135.933V58ZM137.571 54.4545C137.571 53.0788 138.162 52.1879 139.238 52.1879C140.35 52.1879 140.923 53.1342 140.923 54.4545C140.923 55.7841 140.341 56.7536 139.238 56.7536C138.172 56.7536 137.571 55.8303 137.571 54.4545ZM144.845 60.6591C146.146 60.6591 146.899 59.9897 147.301 58.8587L150.149 50.9183L148.362 50.9091L146.724 56.2642H146.65L145.015 50.9091H143.243L145.814 58.1477L145.671 58.5309C145.362 59.3388 144.872 59.3942 144.143 59.1818L143.755 60.4837C143.981 60.576 144.388 60.6591 144.845 60.6591ZM154.607 58H156.32V54.8054H158.13C160.313 54.8054 161.486 53.4943 161.486 51.6754C161.486 49.8704 160.327 48.5455 158.153 48.5455H154.607V58ZM156.32 53.3974V49.9766H157.89C159.173 49.9766 159.741 50.669 159.741 51.6754C159.741 52.6818 159.173 53.3974 157.899 53.3974H156.32ZM167.419 55.0178C167.419 56.098 166.648 56.6335 165.91 56.6335C165.106 56.6335 164.571 56.0657 164.571 55.1655V50.9091H162.9V55.424C162.9 57.1275 163.869 58.0923 165.263 58.0923C166.325 58.0923 167.073 57.5337 167.396 56.7397H167.47V58H169.09V50.9091H167.419V55.0178ZM170.883 58H172.526V56.8828H172.623C172.886 57.3999 173.436 58.1246 174.654 58.1246C176.326 58.1246 177.577 56.7997 177.577 54.4638C177.577 52.1001 176.289 50.8168 174.65 50.8168C173.399 50.8168 172.877 51.5692 172.623 52.0817H172.554V48.5455H170.883V58ZM172.522 54.4545C172.522 53.0788 173.112 52.1879 174.188 52.1879C175.301 52.1879 175.873 53.1342 175.873 54.4545C175.873 55.7841 175.291 56.7536 174.188 56.7536C173.122 56.7536 172.522 55.8303 172.522 54.4545ZM179.071 58H180.784V53.9837H185.165V58H186.882V48.5455H185.165V52.5479H180.784V48.5455H179.071V58ZM193.191 55.0178C193.191 56.098 192.42 56.6335 191.681 56.6335C190.878 56.6335 190.342 56.0657 190.342 55.1655V50.9091H188.671V55.424C188.671 57.1275 189.641 58.0923 191.035 58.0923C192.097 58.0923 192.844 57.5337 193.168 56.7397H193.241V58H194.862V50.9091H193.191V55.0178ZM198.252 53.8452C198.252 52.8203 198.87 52.2294 199.752 52.2294C200.615 52.2294 201.132 52.7972 201.132 53.7436V58H202.803V53.4851C202.808 51.7862 201.839 50.8168 200.375 50.8168C199.313 50.8168 198.584 51.3246 198.261 52.114H198.178V50.9091H196.58V58H198.252V53.8452ZM208.043 50.9091H206.644V49.2102H204.973V50.9091H203.967V52.2017H204.973V56.1442C204.964 57.4783 205.933 58.1339 207.189 58.0969C207.665 58.0831 207.992 57.9908 208.172 57.9308L207.891 56.6243C207.798 56.6474 207.609 56.6889 207.401 56.6889C206.981 56.6889 206.644 56.5412 206.644 55.8672V52.2017H208.043V50.9091ZM212.504 58.1385C214.156 58.1385 215.292 57.3306 215.588 56.098L214.027 55.9226C213.801 56.5227 213.247 56.8366 212.527 56.8366C211.447 56.8366 210.731 56.1257 210.717 54.9116H215.657V54.3991C215.657 51.9109 214.161 50.8168 212.416 50.8168C210.385 50.8168 209.06 52.3079 209.06 54.4961C209.06 56.7212 210.366 58.1385 212.504 58.1385ZM210.722 53.7852C210.773 52.8803 211.442 52.1186 212.439 52.1186C213.399 52.1186 214.046 52.8203 214.055 53.7852H210.722ZM217.071 58H218.742V53.8313C218.742 52.9311 219.42 52.294 220.339 52.294C220.621 52.294 220.972 52.3448 221.115 52.391V50.8537C220.962 50.826 220.699 50.8075 220.514 50.8075C219.702 50.8075 219.023 51.2692 218.765 52.0909H218.691V50.9091H217.071V58Z" fill="#4A5568"/>
</svg>
